# xmcd
#
# Track frame offsets: 
#        150
#        14296
#        28561
#        43285
#        65467
#        77179
#        91442
#        111224
#        129938
#        153758
#        167923
#        184274
#        204043
#
# Disc length: 3019 seconds
#
# Revision: 0
# Processed by: cddbd v1.5.2PL0 Copyright (c) Steve Scherf et al.
# Submitted via: ExactAudioCopy v1.2
#
DISCID=a20bc90d
DTITLE=Peter Ward - Blues on My Shoulders
DYEAR=2017
DGENRE=Blues
TTITLE0=She Took It All
TTITLE1=Which Hazel
TTITLE2=Blues on My Shoulders
TTITLE3=Collaborate
TTITLE4=Shiprock
TTITLE5=What Can I Do to You?
TTITLE6=It's on Me
TTITLE7=Southpaw
TTITLE8=A Little More
TTITLE9=On the Ropes
TTITLE10=Colletta
TTITLE11=Kansas City Blues
TTITLE12=Drummin' Willie
EXTD=
EXTT0=
EXTT1=
EXTT2=
EXTT3=
EXTT4=
EXTT5=
EXTT6=
EXTT7=
EXTT8=
EXTT9=
EXTT10=
EXTT11=
EXTT12=
PLAYORDER=
